#!OML:ASF E:\emotionWalksFemale\Project 1\Capture day 1\Session 1\Female1.ASF
:FULLY-SPECIFIED
:DEGREES
354
root 8.8106 15.253 33.1827 180.553 -1.40439 -174.979
lowerback 9.68228 1.75949 4.69356
upperback -4.12236 3.01244 0.840605
thorax -9.6698 1.15678 -2.2661
lowerneck -8.75248 -3.51722 -7.5062
upperneck 19.4362 -5.67398 6.07833
head 7.80178 -3.02604 2.67696
rclavicle -6.1996e-015 1.49089e-014
rhumerus -39.303 13.3652 -84.8355
rradius 39.9283
rwrist -11.5577
rhand 4.03779 -44.7764
rfingers 7.12502
rthumb -150.548 467.538
lclavicle -6.1996e-015 1.49089e-014
lhumerus -52.7501 -4.40982 84.096
lradius 45.3404
lwrist 14.9612
lhand -17.008 -42.5411
lfingers 7.12502
lthumb 9.22766 -12.763
rfemur 11.3989 10.9374 36.2832
rtibia -3.18055e-015
rfoot -15.0609 -24.6254
rtoes 11.0611
lfemur -44.7262 -0.344724 -16.536
ltibia 94.7251
lfoot -24.6984 2.42266
ltoes -22.3819
355
root 8.80477 15.2386 33.0769 180.298 -1.23324 -175.039
lowerback 9.96156 1.83159 4.7612
upperback -3.99778 3.13698 0.842869
thorax -9.68566 1.21611 -2.3328
lowerneck -8.89256 -3.66442 -7.52241
upperneck 19.5165 -5.83115 5.90326
head 7.86175 -3.1126 2.603
rclavicle 3.01904e-015 -6.55989e-015
rhumerus -37.5531 13.4829 -84.5812
rradius 41.0818
rwrist -12.9514
rhand 4.55268 -45.2664
rfingers 7.12502
rthumb -150.057 467.136
lclavicle 3.01904e-015 -6.55989e-015
lhumerus -54.0804 -4.04584 83.6707
lradius 44.79
lwrist 14.5766
lhand -16.7047 -42.603
lfingers 7.12502
lthumb 9.52027 -12.8381
rfemur 12.1523 10.7338 36.3304
rtibia 7.95139e-015
rfoot -15.1832 -24.2891
rtoes 10.8919
lfemur -45.3431 -0.993526 -16.7782
ltibia 92.8277
lfoot -24.9455 3.4895
ltoes -23.5222
356
root 8.80267 15.2289 32.9664 180.05 -0.933826 -175.137
lowerback 10.2943 2.02378 4.69157
upperback -3.9434 3.40856 0.851378
thorax -9.80676 1.35001 -2.34677
lowerneck -8.92513 -3.78776 -7.69449
upperneck 19.588 -5.98505 5.93169
head 7.90931 -3.19569 2.62446
rclavicle 2.13694e-014 1.5704e-014
rhumerus -35.961 13.4939 -84.2986
rradius 42.2142
rwrist -13.837
rhand 5.31529 -46.9556
rfingers 7.12502
rthumb -149.329 465.581
lclavicle 2.13694e-014 1.5704e-014
lhumerus -55.3969 -3.79411 83.3293
lradius 44.0737
lwrist 13.7198
lhand -16.6478 -42.6875
lfingers 7.12502
lthumb 9.57522 -12.9251
rfemur 12.936 10.6544 36.3462
rtibia 2.06736e-014
rfoot -15.4966 -24.1411
rtoes 10.6819
lfemur -45.758 -1.51584 -17.0085
ltibia 90.6595
lfoot -25.3076 4.57037
ltoes -24.0027
357
root 8.80176 15.2196 32.8526 179.896 -0.645277 -175.178
lowerback 10.5992 2.19856 4.81497
upperback -4.00945 3.67646 0.759333
thorax -10.028 1.45986 -2.57946
lowerneck -8.80075 -3.8328 -7.78638
upperneck 19.6256 -6.0911 6.09288
head 7.91457 -3.24601 2.68431
rclavicle 3.30231e-014 1.70955e-014
rhumerus -34.6029 13.407 -84.2183
rradius 43.3999
rwrist -14.3321
rhand 4.51739 -47.243
rfingers 7.12502
rthumb -150.09 465.153
lclavicle 3.30231e-014 1.70955e-014
lhumerus -56.7763 -3.87758 82.9594
lradius 43.2621
lwrist 12.9096
lhand -16.6492 -42.7388
lfingers 7.12502
lthumb 9.57382 -12.9763
rfemur 13.6108 10.5916 36.3943
rtibia -3.02153e-014
rfoot -15.6869 -23.8683
rtoes 11.2382
lfemur -46.1459 -2.00611 -17.1297
ltibia 88.1913
lfoot -25.4783 5.52532
ltoes -22.2632
358
root 8.80117 15.2109 32.7368 179.802 -0.365193 -175.192
lowerback 10.7568 2.27011 5.06085
upperback -4.04237 3.81073 0.630854
thorax -10.1246 1.50046 -2.88865
lowerneck -8.68314 -3.83949 -7.65898
upperneck 19.5849 -6.12389 6.05114
head 7.87681 -3.2602 2.64784
rclavicle 2.93207e-015 3.37934e-015
rhumerus -33.1756 13.5286 -84.2834
rradius 44.6284
rwrist -14.4308
rhand 4.06452 -46.6117
rfingers 7.12502
rthumb -150.523 465.708
lclavicle 2.93207e-015 3.37934e-015
lhumerus -58.3814 -4.08155 82.5555
lradius 43.003
lwrist 12.4931
lhand -16.6921 -42.5171
lfingers 7.12502
lthumb 9.53243 -12.7527
rfemur 14.2342 10.535 36.4743
rtibia -5.08889e-014
rfoot -15.6387 -23.5616
rtoes 11.9661
lfemur -46.4622 -2.48948 -17.1709
ltibia 85.4885
lfoot -25.5567 6.46745
ltoes -19.5762
359
root 8.79856 15.1971 32.6197 179.755 -0.0619254 -175.192
lowerback 10.0393 2.47721 5.00839
upperback -3.56035 4.03192 0.793605
thorax -9.1661 1.6607 -2.66863
lowerneck -8.76153 -4.03185 -8.04417
upperneck 19.1107 -6.25172 6.13908
head 7.76087 -3.3129 2.72809
rclavicle 2.30404e-014 -3.27995e-015
rhumerus -30.9853 13.8711 -83.6443
rradius 45.8028
rwrist -14.7545
rhand 7.01051 -48.4091
rfingers 7.12502
rthumb -147.714 464.443
lclavicle 2.30404e-014 -3.27995e-015
lhumerus -59.2632 -4.09876 82.5588
lradius 42.9276
lwrist 12.1038
lhand -16.4659 -42.2937
lfingers 7.12502
lthumb 9.75071 -12.5394
rfemur 14.815 10.5144 36.5521
rtibia -2.54444e-014
rfoot -16.0642 -23.4395
rtoes 11.0626
lfemur -46.6839 -3.01129 -17.15
ltibia 82.6394
lfoot -26.0485 7.68404
ltoes -20.8046
360
root 8.79608 15.1841 32.5002 179.871 0.236586 -175.178
lowerback 10.0559 2.64046 5.21509
upperback -3.63518 4.38566 0.706787
thorax -9.21388 1.86307 -2.94679
lowerneck -8.89053 -4.20556 -8.25439
upperneck 19.2393 -6.49649 6.31313
head 7.85868 -3.4276 2.79253
rclavicle 2.08662e-014 2.42517e-014
rhumerus -29.5541 13.8215 -83.4866
rradius 46.7147
rwrist -15.9541
rhand 4.38646 -46.5337
rfingers 7.12502
rthumb -150.215 465.84
lclavicle 2.08662e-014 2.42517e-014
lhumerus -60.5609 -4.40392 82.1853
lradius 42.6076
lwrist 11.5867
lhand -15.4653 -42.2745
lfingers 7.12502
lthumb 10.7159 -12.5678
rfemur 15.2377 10.5357 36.6103
rtibia -3.18055e-015
rfoot -16.4882 -23.4476
rtoes 9.75987
lfemur -46.9463 -3.49078 -17.0611
ltibia 79.5841
lfoot -26.4929 8.52894
ltoes -20.2382
361
root 8.79377 15.1762 32.3752 179.942 0.607206 -175.17
lowerback 10.1927 2.84789 5.30879
upperback -3.78866 4.69077 0.647964
thorax -9.42601 1.9934 -3.1273
lowerneck -8.92271 -4.27274 -8.22625
upperneck 19.3838 -6.60447 6.27335
head 7.91877 -3.48444 2.76216
rclavicle -3.0998e-015 9.34288e-015
rhumerus -28.1013 13.5711 -83.3067
rradius 47.69
rwrist -16.3244
rhand 4.24151 -46.5507
rfingers 7.12502
rthumb -150.354 465.799
lclavicle -3.0998e-015 9.34288e-015
lhumerus -61.9598 -4.60215 81.8187
lradius 42.1626
lwrist 10.8314
lhand -14.9414 -42.1929
lfingers 7.12502
lthumb 11.2212 -12.513
rfemur 15.7182 10.6119 36.6798
rtibia -2.8625e-014
rfoot -16.4636 -23.4584
rtoes 9.37726
lfemur -46.9813 -3.84119 -16.9681
ltibia 76.3119
lfoot -26.8948 9.08154
ltoes -18.2579
362
root 8.78775 15.1688 32.2488 179.921 0.918156 -175.33
lowerback 9.98423 2.97133 5.26735
upperback -3.66693 4.81752 0.573187
thorax -9.15444 2.06515 -3.18468
lowerneck -8.87932 -4.2631 -8.27047
upperneck 19.1866 -6.58852 6.41735
head 7.85053 -3.4616 2.82054
rclavicle -3.2843e-014 1.98785e-015
rhumerus -26.2922 13.789 -83.185
rradius 48.4422
rwrist -16.7437
rhand 4.98096 -46.4773
rfingers 7.12502
rthumb -149.648 466
lclavicle -3.2843e-014 1.98785e-015
lhumerus -63.2917 -4.93218 81.7796
lradius 42.0603
lwrist 10.502
lhand -15.7009 -41.9494
lfingers 7.12502
lthumb 10.4887 -12.2311
rfemur 16.2826 10.6107 36.5498
rtibia 3.18055e-014
rfoot -16.5853 -23.3878
rtoes 9.11064
lfemur -46.7515 -4.3133 -17.0712
ltibia 72.7745
lfoot -27.1098 9.9174
ltoes -17.9613
363
root 8.78173 15.1585 32.1262 179.997 1.05381 -175.439
lowerback 9.89138 3.02401 5.17948
upperback -3.69792 4.87335 0.579407
thorax -9.13638 2.09862 -3.13306
lowerneck -8.88786 -4.23309 -8.3188
upperneck 19.217 -6.55017 6.45429
head 7.86178 -3.44466 2.84468
rclavicle 3.72535e-014 7.45443e-015
rhumerus -25.3109 14.6041 -83.0496
rradius 50.3102
rwrist -17.5148
rhand 5.1713 -46.43
rfingers 7.12502
rthumb -149.467 466.081
lclavicle 3.72535e-014 7.45443e-015
lhumerus -64.8223 -5.25874 81.9451
lradius 42.0285
lwrist 10.7509
lhand -16.1787 -41.8382
lfingers 7.12502
lthumb 10.0278 -12.0971
rfemur 16.7265 10.4714 36.4189
rtibia -5.88403e-014
rfoot -16.8488 -23.1346
rtoes 8.96918
lfemur -46.5059 -4.9537 -17.0488
ltibia 69.1877
lfoot -27.5309 10.1631
ltoes -16.18
364
root 8.77866 15.1599 32.0028 180.063 1.13725 -175.471
lowerback 9.91441 3.07471 5.18101
upperback -3.79799 4.9512 0.577643
thorax -9.25318 2.13149 -3.15452
lowerneck -8.87353 -4.24856 -8.27943
upperneck 19.3255 -6.57337 6.34087
head 7.89201 -3.46745 2.79789
rclavicle -4.6087e-014 -1.78906e-014
rhumerus -24.0495 15.0867 -82.8941
rradius 51.4602
rwrist -18.1755
rhand 4.83944 -46.3482
rfingers 7.12502
rthumb -149.783 466.104
lclavicle -4.6087e-014 -1.78906e-014
lhumerus -66.2108 -5.46928 81.8689
lradius 41.7716
lwrist 10.6987
lhand -15.6742 -41.745
lfingers 7.12502
lthumb 10.5144 -12.028
rfemur 17.1739 10.2782 36.3689
rtibia 1.59028e-014
rfoot -17.1368 -22.8912
rtoes 9.65006
lfemur -46.2949 -5.58858 -16.9311
ltibia 65.433
lfoot -27.5972 10.9773
ltoes -17.4766
365
root 8.77426 15.1548 31.8809 180.204 1.18495 -175.641
lowerback 9.83851 3.15446 5.10345
upperback -3.87408 5.03887 0.493942
thorax -9.28297 2.17369 -3.21242
lowerneck -8.87844 -4.32207 -8.25972
upperneck 19.3612 -6.66045 6.23652
head 7.90794 -3.51664 2.75043
rclavicle 2.38914e-014 4.67144e-015
rhumerus -22.4802 15.2013 -82.6917
rradius 52.1048
rwrist -18.5675
rhand 4.82722 -46.5904
rfingers 7.12502
rthumb -149.795 465.86
lclavicle 2.38914e-014 4.67144e-015
lhumerus -67.4836 -5.82341 81.764
lradius 41.5274
lwrist 10.2628
lhand -14.8962 -41.2239
lfingers 7.12502
lthumb 11.2649 -11.5464
rfemur 17.5504 10.0706 36.1738
rtibia 1.74931e-014
rfoot -17.4791 -22.8188
rtoes 9.89222
lfemur -45.9941 -6.26552 -16.9361
ltibia 61.6462
lfoot -27.9615 11.469
ltoes -16.2189
366
root 8.77021 15.1478 31.7544 180.408 1.26571 -175.659
lowerback 9.61629 3.2321 5.19461
upperback -3.92015 5.14013 0.434576
thorax -9.18152 2.22013 -3.32741
lowerneck -8.89645 -4.37983 -8.27908
upperneck 19.3201 -6.73022 6.24946
head 7.90448 -3.54689 2.75032
rclavicle -1.0225e-014 9.54166e-015
rhumerus -20.839 15.3979 -82.4593
rradius 52.6819
rwrist -18.9616
rhand 4.85908 -46.6646
rfingers 7.12502
rthumb -149.764 465.791
lclavicle -1.0225e-014 9.54166e-015
lhumerus -68.7146 -6.28236 81.7231
lradius 41.2886
lwrist 9.81977
lhand -14.4683 -40.3877
lfingers 7.12502
lthumb 11.6775 -10.7331
rfemur 17.8428 9.91039 36.1388
rtibia 9.54166e-015
rfoot -17.8096 -22.8346
rtoes 8.67375
lfemur -45.6913 -6.87081 -16.7353
ltibia 57.8512
lfoot -27.9545 11.8634
ltoes -15.0823
367
root 8.76892 15.1408 31.6205 180.461 1.48888 -175.587
lowerback 9.48819 3.33305 5.25024
upperback -3.92745 5.28075 0.469644
thorax -9.10088 2.29085 -3.33339
lowerneck -8.84014 -4.40956 -8.37979
upperneck 19.182 -6.75495 6.32261
head 7.8568 -3.55579 2.79028
rclavicle -5.19325e-015 -9.93923e-017
rhumerus -19.2705 15.8612 -82.1767
rradius 53.3269
rwrist -19.4879
rhand 4.67805 -46.3936
rfingers 7.12502
rthumb -149.937 466.03
lclavicle -5.19325e-015 -9.93923e-017
lhumerus -69.8376 -6.46912 81.5717
lradius 40.783
lwrist 9.08059
lhand -14.5799 -40.2574
lfingers 7.12502
lthumb 11.5699 -10.5968
rfemur 18.325 9.84536 36.2211
rtibia -5.40694e-014
rfoot -18.075 -22.6808
rtoes 9.15584
lfemur -45.1648 -7.37464 -16.3844
ltibia 54.1061
lfoot -27.6913 12.2977
ltoes -16.6746
